# xmcd
#
# Track frame offsets:
#	150
#	20595
#	40363
#	54600
#	68518
#	85872
#	102824
#	117530
#	134387
#	151030
#	168409
#	189109
#
# Disc length: 2666 seconds
#
# Revision: 0
# Processed by: cddbd v1.5.2PL0 Copyright (c) Steve Scherf et al.
# Submitted via: dBpowerAMP V4.0
#
DISCID=940a680c
DTITLE=Various Artist - Sax1
DYEAR=1900
DGENRE=
TTITLE0=tengo todo excepto a ti - Sax1
TTITLE1=te extraño - Sax
TTITLE2=todo cambia - Sax
TTITLE3=maldita primavera - Sax
TTITLE4=insoportablemente bella - Sax
TTITLE5=daria - Sax
TTITLE6=ahora te puedes marchar - Sax
TTITLE7=lo pasado pasado - Sax
TTITLE8=amor mio - Sax
TTITLE9=un hombre y una mujer - Sax
TTITLE10=alfonsina y el mar - Sax
TTITLE11=maria - Sax
EXTD=
EXTT0=
EXTT1=
EXTT2=
EXTT3=
EXTT4=
EXTT5=
EXTT6=
EXTT7=
EXTT8=
EXTT9=
EXTT10=
EXTT11=
PLAYORDER=
